<?xml version="1.0" encoding="UTF-8" standalone="no"?>
<svg xmlns="http://www.w3.org/2000/svg" version="1.0" width="1600.000000pt" height="1150.000000pt" viewBox="0 0 1600.000000 1150.000000" preserveAspectRatio="xMidYMid meet"><metadata> Created by potrace 1.15, written by Peter Selinger 2001-2017 </metadata><g transform="translate(0.000000,1150.000000) scale(0.100000,-0.100000)" fill="#000000" stroke="none"><path d="M7480 10519 c-778 -40 -1586 -198 -2312 -453 -278 -97 -318 -115 -318 -139 0 -187 46 -1240 70 -1627 147 -2330 472 -3349 1253 -3933 265 -199 588 -362 1078 -546 237 -89 727 -261 743 -261 14 0 654 226 821 290 312 119 625 267 813 384 297 185 543 422 722 696 81 125 216 401 280 573 279 752 432 1930 500 3837 5 157 12 359 16 450 l6 165 -144 53 c-796 293 -1565 456 -2423 512 -174 11 -878 11 -1105 -1z m1120 -299 c701 -45 1401 -184 2069 -410 95 -32 174 -60 175 -62 8 -9 -36 -1023 -59 -1403 -136 -2151 -419 -3136 -1053 -3665 -296 -247 -656 -424 -1392 -684 -135 -48 -268 -95 -296 -105 l-50 -19 -315 112 c-383 137 -585 217 -789 311 -451 207 -753 446 -967 765 -416 619 -628 1682 -728 3645 -14 289 -32 722 -37 930 l-3 110 140 48 c518 179 1078 309 1615 376 332 42 522 53 945 60 459 7 502 6 745 -9z"/><path d="M7964 9116 c-67 -29 -106 -116 -90 -201 9 -44 57 -100 100 -116 l33 -12 -34 -86 c-144 -357 -273 -484 -528 -521 -207 -29 -378 14 -506 130 l-54 47 32 36 c99 113 16 271 -132 254 -57 -6 -99 -37 -120 -89 -35 -89 12 -183 104 -208 l43 -11 -6 -62 c-9 -75 -47 -194 -80 -245 -37 -57 -95 -108 -161 -140 -95 -47 -137 -55 -214 -42 -64 11 -198 52 -273 84 l-38 16 20 33 c13 21 20 50 20 86 0 49 -3 57 -39 92 -35 35 -44 39 -90 39 -63 0 -105 -20 -131 -63 -56 -91 11 -217 114 -217 37 0 38 -1 75 -82 21 -46 51 -116 67 -156 l29 -74 150 5 c169 6 233 19 345 74 90 43 186 136 242 233 21 35 39 68 41 74 2 5 42 -5 89 -22 348 -126 650 -54 911 216 l67 70 83 -82 c144 -143 313 -213 533 -223 171 -8 298 22 444 104 3 1 20 -30 39 -70 61 -129 200 -239 359 -283 34 -9 62 -21 62 -25 0 -6 -116 -313 -158 -421 l-11 -26 -60 24 c-197 80 -780 157 -1181 156 -565 0 -1131 -97 -1404 -240 -86 -45 -178 -128 -207 -188 -29 -60 -24 -185 11 -257 107 -224 463 -360 1062 -407 176 -13 718 -13 935 0 207 13 353 27 361 35 3 3 -5 28 -19 56 l-24 52 -115 -7 c-362 -19 -862 -28 -976 -17 -596 58 -1044 206 -1044 345 0 77 129 151 368 211 195 49 612 100 912 111 457 17 1131 -58 1449 -161 173 -56 250 -45 292 41 11 23 111 241 223 485 l204 444 58 6 c51 6 62 12 96 48 35 37 38 45 38 97 0 105 -60 161 -164 152 -49 -4 -62 -10 -93 -41 -31 -30 -37 -44 -41 -90 -3 -38 1 -63 13 -86 9 -18 15 -34 13 -36 -21 -21 -138 -80 -202 -102 -69 -24 -97 -28 -191 -28 -101 0 -115 2 -168 29 -69 33 -124 98 -173 201 -35 75 -59 190 -49 241 5 29 9 32 51 37 114 12 175 126 122 226 -55 105 -205 110 -269 9 -29 -48 -23 -133 14 -182 l28 -35 -43 -31 c-122 -89 -254 -139 -387 -147 -213 -13 -388 84 -528 294 -53 80 -117 218 -129 280 -5 26 -3 31 19 37 41 10 84 53 103 101 31 82 -3 178 -77 215 -45 23 -119 26 -165 6z"/><path d="M12870 2932 c-38 -20 -80 -89 -80 -132 0 -43 42 -112 80 -132 100 -52 220 19 220 131 0 116 -118 186 -220 133z"/><path d="M4150 1965 l0 -955 90 0 90 0 0 121 0 121 36 -44 c82 -99 210 -181 331 -212 80 -21 268 -21 348 -1 33 8 98 34 145 57 69 34 102 58 176 132 77 77 98 106 137 186 61 125 82 227 74 370 -11 198 -72 335 -212 475 -146 146 -286 205 -490 205 -189 0 -336 -57 -471 -183 l-74 -69 0 376 0 376 -90 0 -90 0 0 -955z m835 270 c234 -61 405 -289 405 -538 0 -229 -163 -451 -379 -518 -77 -23 -209 -27 -286 -9 -185 46 -350 219 -391 409 -63 297 105 579 389 656 70 18 189 18 262 0z"/><path d="M5850 1965 l0 -955 95 0 95 0 0 955 0 955 -95 0 -95 0 0 -955z"/><path d="M9560 1965 l0 -955 94 0 94 0 4 408 c5 447 7 467 70 584 35 65 136 166 198 198 106 54 259 64 353 22 90 -40 157 -127 188 -243 8 -29 13 -201 16 -506 l5 -463 89 0 89 0 0 449 c0 513 -6 576 -66 699 -83 169 -238 262 -439 262 -167 0 -299 -56 -427 -180 l-78 -75 0 377 0 378 -95 0 -95 0 0 -955z"/><path d="M1536 2404 c-96 -23 -192 -81 -278 -166 l-78 -76 0 114 0 114 -90 0 -90 0 0 -690 0 -690 90 0 90 0 0 328 c1 347 10 495 36 577 68 208 269 349 476 332 174 -15 281 -126 307 -320 6 -46 11 -254 11 -498 l0 -419 95 0 95 0 0 398 c0 385 -8 533 -31 637 -40 178 -171 315 -346 360 -71 19 -208 18 -287 -1z"/><path d="M2990 2405 c-351 -79 -593 -440 -541 -809 24 -173 84 -289 216 -421 101 -101 172 -142 302 -175 96 -25 287 -27 383 -4 286 67 507 339 527 649 17 271 -102 516 -323 665 -112 75 -208 102 -369 106 -89 2 -151 -1 -195 -11z m289 -180 c91 -22 172 -68 245 -142 224 -224 219 -583 -11 -793 -207 -190 -526 -181 -723 19 -174 178 -207 435 -84 661 32 60 140 166 209 206 102 59 241 78 364 49z"/><path d="M6825 2401 c-271 -67 -470 -296 -516 -593 -35 -222 40 -460 196 -626 82 -87 149 -131 257 -170 68 -24 84 -26 253 -27 171 0 184 1 253 27 103 37 175 83 252 158 57 56 170 215 159 224 -14 11 -145 76 -154 76 -5 0 -27 -27 -48 -59 -60 -93 -131 -158 -222 -201 -169 -81 -334 -82 -490 -2 -73 37 -175 144 -213 222 -27 57 -62 190 -62 235 0 13 68 15 616 15 l617 0 -6 83 c-14 187 -77 327 -207 458 -140 141 -291 200 -507 198 -66 0 -135 -7 -178 -18z m326 -177 c176 -52 291 -161 350 -331 l18 -53 -504 0 -505 0 24 64 c61 161 169 267 324 317 74 23 218 25 293 3z"/><path d="M8510 2404 c-278 -59 -477 -241 -561 -514 -30 -98 -33 -290 -5 -390 31 -114 92 -216 181 -305 95 -94 162 -136 282 -178 79 -27 104 -31 234 -35 219 -7 354 27 501 125 67 44 178 155 178 178 0 7 -32 33 -71 60 l-72 47 -39 -45 c-50 -59 -169 -138 -249 -167 -88 -31 -248 -38 -343 -16 -110 26 -192 72 -271 151 -116 116 -172 262 -162 420 21 322 316 550 653 505 146 -19 233 -60 338 -160 40 -39 76 -70 79 -70 15 0 137 84 137 94 0 25 -110 144 -168 183 -78 52 -187 97 -284 117 -94 19 -269 20 -358 0z"/><path d="M11552 2400 c-239 -63 -436 -261 -503 -505 -29 -108 -29 -276 0 -388 61 -231 247 -430 466 -500 102 -32 328 -32 430 0 90 29 181 83 261 156 l64 59 0 -106 0 -106 95 0 95 0 0 690 0 690 -95 0 -95 0 0 -113 0 -112 -78 75 c-87 84 -184 139 -292 164 -92 22 -256 20 -348 -4z m333 -175 c180 -47 326 -193 381 -380 21 -72 23 -208 5 -285 -57 -241 -272 -410 -521 -410 -235 0 -439 158 -512 395 -88 283 88 603 373 679 72 19 201 20 274 1z"/><path d="M13815 2400 c-65 -26 -138 -82 -192 -148 l-43 -53 0 96 0 95 -95 0 -95 0 0 -690 0 -690 95 0 95 0 0 248 c0 312 15 599 35 677 24 91 59 159 110 214 75 81 163 106 260 76 17 -5 28 7 68 72 l48 78 -43 20 c-63 28 -178 31 -243 5z"/><path d="M14489 2404 c-104 -31 -200 -126 -233 -226 -20 -63 -21 -169 -1 -234 34 -117 105 -183 320 -304 72 -40 147 -86 168 -102 167 -132 61 -380 -163 -382 -54 -1 -76 4 -130 31 -36 18 -83 50 -105 72 -22 22 -45 40 -51 41 -12 0 -114 -113 -114 -128 0 -18 107 -110 156 -135 91 -46 157 -59 273 -55 93 3 114 7 166 33 77 37 158 119 193 192 24 53 27 69 27 173 0 102 -3 120 -24 160 -53 100 -128 164 -306 260 -117 64 -190 117 -222 163 -23 33 -28 51 -28 102 0 52 4 67 28 98 41 54 99 81 172 81 72 -1 127 -23 210 -87 l60 -46 58 57 c31 31 57 61 57 67 -1 27 -154 131 -239 161 -77 28 -198 31 -272 8z"/><path d="M12850 1700 l0 -690 95 0 95 0 0 690 0 690 -95 0 -95 0 0 -690z"/></g></svg>